# xmcd
#
# Track frame offsets: 
#        150
#        17496
#        38570
#        61047
#        81375
#        99944
#        115753
#        133890
#        152910
#        169125
#        188468
#        208497
#        227165
#        248871
#        268795
#        288819
#        308539
#        329459
#
# Disc length: 4716 seconds
#
# Revision: 0
# Processed by: cddbd v1.5.1PL2 Copyright (c) Steve Scherf et al.
# Submitted via: ExactAudioCopy v0.95b3
#
DISCID=f1126a12
DTITLE=Brian McKnight - 1989-2002 From There To Here
DYEAR=2002
DGENRE=Soul
TTITLE0=Let Me Love You
TTITLE1=The Way Love Goes
TTITLE2=One Last Cry
TTITLE3=Love Is
TTITLE4=Crazy Love
TTITLE5=On The Down Low
TTITLE6=Still In Love
TTITLE7=Anytime
TTITLE8=The Only One For Me
TTITLE9=You Should Be Mine
TTITLE10=Back To One
TTITLE11=6-8-12
TTITLE12=Love Of My Life
TTITLE13=Home
TTITLE14=The Way I Do
TTITLE15=Still
TTITLE16=Biggest Part Of Me
TTITLE17=Groovin Tonight
EXTD=
EXTT0=
EXTT1=
EXTT2=
EXTT3=
EXTT4=
EXTT5=
EXTT6=
EXTT7=
EXTT8=
EXTT9=
EXTT10=
EXTT11=
EXTT12=
EXTT13=
EXTT14=
EXTT15=
EXTT16=
EXTT17=
PLAYORDER=
